<svg width="212" height="38" viewBox="0 0 212 38" fill="none" xmlns="http://www.w3.org/2000/svg">
<path d="M77.1415 26.6216L79.6375 22.8776L82.1095 26.6216C82.3255 26.9336 82.6615 27.1016 83.0455 27.1016H85.2535V10.3016H82.4455V22.9016L81.0295 20.7656L80.5495 20.0696C80.1175 19.3976 79.1335 19.3976 78.7015 20.0696L78.2215 20.7656L76.8055 22.9016V10.3016H74.0215V27.1016H76.2055C76.5895 27.1016 76.9255 26.9336 77.1415 26.6216ZM95.1741 10.3496C95.1021 10.3256 95.0061 10.3016 94.9341 10.3016H88.7661C88.1421 10.3016 87.6621 10.8056 87.6621 11.4296V27.1016H90.4461V23.0216C91.4781 22.8056 92.4141 22.3976 93.2541 21.8456V27.1016H96.0621V11.4296C96.0621 10.9016 95.6781 10.4696 95.1741 10.3496ZM90.4461 20.1176V13.1096H93.2541V17.9096C92.6061 18.9416 91.6221 19.7336 90.4461 20.1176ZM105.979 10.3496C105.907 10.3256 105.811 10.3016 105.739 10.3016H98.4668V27.1256H101.251V23.0216C102.115 22.8536 102.907 22.5176 103.651 22.1096L104.059 22.8776V27.1256H106.867V22.8776L105.595 20.5016C106.099 19.9256 106.531 19.3016 106.867 18.6296V11.4296C106.843 10.9016 106.483 10.4696 105.979 10.3496ZM101.251 13.1096H104.059V17.9096C103.411 18.9416 102.427 19.7336 101.251 20.1176V13.1096ZM116.783 10.3496C116.711 10.3256 116.615 10.3016 116.543 10.3016H110.375C109.751 10.3016 109.271 10.8056 109.271 11.4296V27.1016H112.055V23.0216C113.087 22.8056 114.023 22.3976 114.863 21.8456C116.063 21.0536 117.023 19.9256 117.647 18.6296V11.4296C117.647 10.9016 117.287 10.4696 116.783 10.3496ZM112.055 20.1176V13.1096H114.863V17.9096C114.215 18.9416 113.231 19.7336 112.055 20.1176ZM122.86 10.3016H120.076V25.9976C120.076 26.6216 120.556 27.1016 121.18 27.1016H128.452V24.3176H122.86V10.3016ZM138.393 10.3496C138.321 10.3256 138.225 10.3016 138.153 10.3016H131.985C131.361 10.3016 130.881 10.8056 130.881 11.4296V27.1016H133.665V23.0216C134.697 22.8056 135.633 22.3976 136.473 21.8456V27.1016H139.281V11.4296C139.281 10.9016 138.897 10.4696 138.393 10.3496ZM133.665 20.1176V13.1096H136.473V17.9096C135.825 18.9416 134.841 19.7336 133.665 20.1176ZM148.886 10.3016L146.078 15.9176L143.27 10.3016H140.486L144.686 18.7016V27.1016H147.47V18.7016L151.67 10.3016H148.886ZM152.889 24.3176V27.1016H154.569C155.169 27.1016 155.673 26.6216 155.673 25.9976V24.3176H152.889ZM163.684 24.3176H160.876V13.1096H163.684V15.9656C164.884 15.5336 165.892 14.6456 166.468 13.5176V11.4296C166.468 10.8056 165.988 10.3016 165.364 10.3016H158.092V27.1016H165.364C165.988 27.1016 166.468 26.6216 166.468 25.9976V18.8936H163.684V24.3176ZM171.68 10.3016H168.896V25.9976C168.896 26.6216 169.376 27.1016 170 27.1016H177.272V24.3176H171.68V10.3016ZM179.701 11.4296V25.9976C179.701 26.6216 180.181 27.1016 180.805 27.1016H186.973C187.597 27.1016 188.077 26.6216 188.077 25.9976V11.4296C188.077 10.8056 187.597 10.3016 186.973 10.3016H180.805C180.181 10.3016 179.701 10.8056 179.701 11.4296ZM185.293 24.3176H182.485V13.1096H185.293V24.3176ZM196.098 10.3016V24.3176H193.29V10.3016H190.506V25.9976C190.506 26.6216 190.986 27.1016 191.61 27.1016H197.778C198.402 27.1016 198.882 26.6216 198.882 25.9976V10.3016H196.098ZM201.311 10.3016V27.1016H208.583C209.207 27.1016 209.687 26.6216 209.687 25.9976V11.4296C209.687 10.8056 209.207 10.3016 208.583 10.3016H201.311ZM206.903 24.3176H204.095V13.1096H206.903V24.3176Z" fill="#ECECEC"/>
<path d="M27.9149 21.8691H19.9118C19.824 21.8691 19.7441 21.9213 19.7122 21.9959L12.1883 37.0487C12.1324 37.1829 12.2362 37.3246 12.388 37.3171H35.4228C35.5745 37.3171 35.6704 37.168 35.6224 37.0412L28.0986 21.9884C28.0746 21.9213 27.9948 21.8691 27.9149 21.8691Z" fill="#ECECEC"/>
<path d="M12.2922 33.0299L18.8177 20.0726C18.8336 20.0353 18.8416 19.9906 18.8256 19.9458L9.38487 1.04663C9.32098 0.822966 8.96954 0.852788 8.96954 1.09136L11.8928 32.9553C11.8769 33.1641 12.2043 33.2312 12.2922 33.0299Z" fill="#ECECEC"/>
<path d="M0.591141 12.5951L6.74919 0.0851929C6.87699 -0.078822 7.14056 0.0106405 7.13257 0.211931L10.3753 34.834C10.3673 35.0427 10.0559 35.1024 9.96799 34.9085L0.231722 15.3908C-0.17562 14.4663 -0.0398394 13.4077 0.591141 12.5951Z" fill="#E0E0E0"/>
<path d="M35.934 32.9553L38.8573 1.09126C38.8573 0.860145 38.5058 0.822868 38.4419 1.04653L29.0012 19.9458C28.9852 19.9905 28.9932 20.0352 29.0092 20.0725L35.5346 33.0299C35.6225 33.2312 35.95 33.1641 35.934 32.9553Z" fill="#ECECEC"/>
<path d="M47.5872 15.3903L37.8509 34.9085C37.7631 35.1098 37.4516 35.0501 37.4436 34.8339L40.6864 0.21108C40.6784 0.00978427 40.942 -0.0722248 41.0697 0.0843384L47.2358 12.5945C47.8668 13.4071 47.9946 14.4658 47.5872 15.3903Z" fill="#E0E0E0"/>
</svg>
