<svg width="33" height="28" viewBox="0 0 33 28" fill="none" xmlns="http://www.w3.org/2000/svg">
<path d="M19.2632 16.0881H13.7406C13.6799 16.0881 13.6248 16.1265 13.6028 16.1813L8.41082 27.2543C8.37224 27.353 8.44389 27.4572 8.54861 27.4517H24.4441C24.5488 27.4517 24.615 27.3421 24.5819 27.2488L19.39 16.1758C19.3734 16.1265 19.3183 16.0881 19.2632 16.0881Z" fill="#57D6FF"/>
<path d="M8.48244 24.2983L12.9854 14.7664C12.9964 14.7389 13.002 14.706 12.9909 14.6731L6.47621 0.770181C6.43212 0.605649 6.18961 0.627587 6.18961 0.803087L8.20686 24.2434C8.19583 24.397 8.42181 24.4463 8.48244 24.2983Z" fill="#57D6FF"/>
<path d="M0.407926 9.26549L4.65738 0.0626718C4.74556 -0.057985 4.92745 0.00782761 4.92194 0.155906L7.15965 25.6255C7.15414 25.779 6.93919 25.8229 6.87856 25.6803L0.159903 11.3221C-0.121189 10.6421 -0.0274918 9.86329 0.407926 9.26549Z" fill="#57D6FF"/>
<path d="M24.7968 24.2434L26.8141 0.80305C26.8141 0.633034 26.5716 0.605612 26.5275 0.770144L20.0128 14.6731C20.0017 14.706 20.0072 14.7389 20.0183 14.7663L24.5213 24.2982C24.5819 24.4463 24.8079 24.3969 24.7968 24.2434Z" fill="#57D6FF"/>
<path d="M32.8383 11.3221L26.1196 25.6803C26.059 25.8284 25.844 25.7845 25.8385 25.6254L28.0762 0.155891C28.0707 0.00781251 28.2526 -0.0525157 28.3408 0.0626567L32.5958 9.26548C33.0312 9.86328 33.1194 10.6421 32.8383 11.3221Z" fill="#57D6FF"/>
</svg>
